<?xml version="1.0" encoding="UTF-8" standalone="no"?><!DOCTYPE svg PUBLIC "-//W3C//DTD SVG 1.1//EN" "http://www.w3.org/Graphics/SVG/1.1/DTD/svg11.dtd"><svg width="100%" height="100%" viewBox="0 0 178 178" version="1.1" xmlns="http://www.w3.org/2000/svg" xmlns:xlink="http://www.w3.org/1999/xlink" xml:space="preserve" xmlns:serif="http://www.serif.com/" style="fill-rule:evenodd;clip-rule:evenodd;stroke-linejoin:round;stroke-miterlimit:2;"><clipPath id="_clip1"><path d="M121.1,86.746l-0.047,-0.029l0.172,-0.396l0.047,0.029l-0.172,0.396Z"/></clipPath><g clip-path="url(#_clip1)"><path d="M120.715,86.822l-0.047,-0.029l0.171,-0.396l0.047,0.029l-0.171,0.396Z" style="fill:#03c8fb;"/></g><g><path d="M0.789,0.45l0,176.238l176.853,0l-0,-176.238l-176.853,0Z" style="fill:#001a21;"/></g><path d="M15.701,15.657l161.941,-0l-15.702,-15.657l-161.94,0l15.701,15.657Z" style="fill:#2caeba;"/><path d="M68.79,90.219l33.387,0l-15.007,14.965l-33.387,-0l15.007,-14.965Z" style="fill:#2caeba;"/><path d="M84.584,107.992l34.246,-0l-15.007,14.964l-34.246,0l15.007,-14.964Z" style="fill:#2caeba;"/><path d="M0,161.481l0,-161.481l15.701,15.657l0,161.481l-15.701,-15.657Z" style="fill:#2caeba;"/><path d="M161.94,161.481l0,-161.481l15.702,15.657l-0,161.481l-15.702,-15.657Z" style="fill:#2caeba;"/><path d="M15.701,177.138l161.941,0l-15.702,-15.657l-161.94,0l15.701,15.657Z" style="fill:#2caeba;"/><path d="M119.725,84.933l22.205,-0l-33.793,-33.698l-22.205,0l33.793,33.698Z" style="fill:#2caeba;"/><path d="M54.167,105.184l-22.205,-0l54.101,-53.949l22.205,0l-54.101,53.949Z" style="fill:#2caeba;"/><path d="M69.971,122.956l-22.1,0l55.045,-54.889l22.101,0l-55.046,54.889Z" style="fill:#2caeba;"/><path d="M103.823,122.956l-22.206,0l38.132,-38.023l22.205,-0l-38.131,38.023Z" style="fill:#2caeba;"/><rect x="0" y="161.481" width="16.544" height="15.657" style="fill:#2caeba;"/><rect x="161.94" y="0" width="15.701" height="15.657" style="fill:#2caeba;"/></svg>